<!-- Generated by IcoMoon.io -->
<svg version="1.1" xmlns="http://www.w3.org/2000/svg" width="768" height="768" viewBox="0 0 768 768">
<title></title>
<g id="icomoon-ignore">
</g>
<path fill="#f43f5e" d="M736 384c0-97.184-39.424-185.248-103.104-248.896s-151.712-103.104-248.896-103.104-185.248 39.424-248.896 103.104-103.104 151.712-103.104 248.896 39.424 185.248 103.104 248.896 151.712 103.104 248.896 103.104 185.248-39.424 248.896-103.104 103.104-151.712 103.104-248.896zM672 384c0 79.552-32.192 151.488-84.352 203.648s-124.096 84.352-203.648 84.352-151.488-32.192-203.648-84.352-84.352-124.096-84.352-203.648 32.192-151.488 84.352-203.648 124.096-84.352 203.648-84.352 151.488 32.192 203.648 84.352 84.352 124.096 84.352 203.648zM352 256v178.752l-73.376-73.376c-12.512-12.512-32.768-12.512-45.248 0s-12.512 32.768 0 45.248l128 128c2.944 2.944 6.464 5.312 10.368 6.944 7.84 3.232 16.672 3.232 24.512 0 3.776-1.568 7.296-3.872 10.368-6.944l128-128c12.512-12.512 12.512-32.768 0-45.248s-32.768-12.512-45.248 0l-73.376 73.376v-178.752c0-17.664-14.336-32-32-32s-32 14.336-32 32z"></path>
</svg>
