<svg width="84" height="30" viewBox="0 0 84 30" fill="none" xmlns="http://www.w3.org/2000/svg">
<path fill-rule="evenodd" clip-rule="evenodd" d="M10 0C4.47715 0 0 4.47715 0 10V28C0 29.1046 0.89543 30 2 30H20C25.5228 30 30 25.5228 30 20V2C30 0.895431 29.1046 0 28 0H10ZM11.4665 22.0741C10.4901 23.0504 8.90723 23.0504 7.93092 22.0741C6.95461 21.0978 6.95461 19.5149 7.93092 18.5386L13.2347 13.2348L18.5384 7.93111C19.5147 6.9548 21.0976 6.9548 22.0739 7.93111C23.0502 8.90742 23.0502 10.4903 22.0739 11.4666L11.4665 22.0741Z" fill="#3B82F6"/>
<path d="M40 18.4731C40.0934 21.2972 42.4711 23 46.0428 23C49.791 23 52.0857 21.1518 52.0857 18.2239C52.0857 15.95 50.7047 14.6729 47.538 14.0396L45.9494 13.7177C44.1843 13.3647 43.4575 12.7936 43.4575 11.8696C43.4575 10.769 44.4958 10.0422 46.0428 10.0422C47.621 10.0422 48.732 10.8105 48.8358 12.0876H51.7949C51.743 9.33615 49.5419 7.50876 46.0428 7.50876C42.7099 7.50876 40.3219 9.32576 40.3219 12.0668C40.3219 14.2992 41.7859 15.732 44.7761 16.3238L46.3543 16.6353C48.2336 17.0195 48.9396 17.5801 48.9396 18.5665C48.9396 19.6671 47.7975 20.477 46.1259 20.477C44.4231 20.477 43.1564 19.7294 42.9591 18.4731H40Z" fill="#111827"/>
<path d="M61.1188 19.3452C60.8384 20.1966 59.987 20.7469 58.8761 20.7469C57.329 20.7469 56.3219 19.6567 56.3219 18.0681V17.8812H63.9948V16.9572C63.9948 13.5724 61.9494 11.3816 58.7099 11.3816C55.4186 11.3816 53.342 13.6866 53.342 17.2375C53.342 20.7988 55.3978 22.9896 58.8241 22.9896C61.5756 22.9896 63.5691 21.5256 63.9014 19.3452H61.1188ZM58.7411 13.6243C60.0909 13.6243 61.0149 14.6003 61.0772 16.0227H56.353C56.4568 14.6314 57.4121 13.6243 58.7411 13.6243Z" fill="#111827"/>
<path d="M66.3725 9.05581V11.6204H64.8047V13.9046H66.3725V19.7502C66.3725 21.9202 67.39 22.7923 70.0065 22.7923C70.6191 22.7923 71.1382 22.7404 71.4497 22.6677V20.4354C71.2628 20.4666 70.9825 20.4873 70.7125 20.4873C69.8196 20.4873 69.4043 20.0824 69.4043 19.231V13.9046H71.4601V11.6204H69.4043V9.05581H66.3725Z" fill="#111827"/>
<path d="M73.9312 9.05581V11.6204H72.3634V13.9046H73.9312V19.7502C73.9312 21.9202 74.9487 22.7923 77.5652 22.7923C78.1778 22.7923 78.6969 22.7404 79.0084 22.6677V20.4354C78.8215 20.4666 78.5412 20.4873 78.2713 20.4873C77.3783 20.4873 76.963 20.0824 76.963 19.231V13.9046H79.0188V11.6204H76.963V9.05581H73.9312Z" fill="#111827"/>
<path d="M82.2375 10.1149C83.1201 10.1149 83.8157 9.40883 83.8157 8.55743C83.8157 7.69565 83.1201 7 82.2375 7C81.355 7 80.6593 7.69565 80.6593 8.55743C80.6593 9.40883 81.355 10.1149 82.2375 10.1149ZM80.732 22.7508H83.7638V11.6204H80.732V22.7508Z" fill="#111827"/>
</svg>
