<svg xmlns="http://www.w3.org/2000/svg" xmlns:xlink="http://www.w3.org/1999/xlink" width="100" zoomAndPan="magnify" viewBox="0 0 75 37.5" height="50" preserveAspectRatio="xMidYMid meet" version="1.0"><defs><g/></defs><g fill="#ffffff" fill-opacity="1"><g transform="translate(3.277005, 24.455731)"><g><path d="M 14.828125 -3.375 C 14.953125 -3.375 15.050781 -3.3125 15.125 -3.1875 C 15.207031 -3.0625 15.25 -2.894531 15.25 -2.6875 C 15.25 -2.289062 15.148438 -1.976562 14.953125 -1.75 C 14.472656 -1.164062 13.984375 -0.710938 13.484375 -0.390625 C 12.992188 -0.078125 12.410156 0.078125 11.734375 0.078125 C 11.085938 0.078125 10.535156 -0.0976562 10.078125 -0.453125 C 9.617188 -0.804688 9.179688 -1.410156 8.765625 -2.265625 C 8.429688 -2.953125 8.164062 -3.457031 7.96875 -3.78125 C 7.78125 -4.113281 7.59375 -4.347656 7.40625 -4.484375 C 7.21875 -4.628906 6.988281 -4.71875 6.71875 -4.75 C 6.675781 -4.53125 6.5625 -3.863281 6.375 -2.75 C 6.289062 -2.25 6.238281 -1.941406 6.21875 -1.828125 C 6.125 -1.210938 5.925781 -0.738281 5.625 -0.40625 C 5.320312 -0.0820312 4.863281 0.078125 4.25 0.078125 C 3.570312 0.078125 2.972656 -0.117188 2.453125 -0.515625 C 1.929688 -0.921875 1.53125 -1.476562 1.25 -2.1875 C 0.96875 -2.894531 0.828125 -3.703125 0.828125 -4.609375 C 0.828125 -6.296875 1.117188 -7.753906 1.703125 -8.984375 C 2.296875 -10.210938 3.125 -11.148438 4.1875 -11.796875 C 5.25 -12.453125 6.476562 -12.78125 7.875 -12.78125 C 8.84375 -12.78125 9.648438 -12.632812 10.296875 -12.34375 C 10.953125 -12.050781 11.4375 -11.644531 11.75 -11.125 C 12.070312 -10.613281 12.234375 -10.035156 12.234375 -9.390625 C 12.234375 -8.828125 12.097656 -8.273438 11.828125 -7.734375 C 11.566406 -7.203125 11.171875 -6.726562 10.640625 -6.3125 C 10.109375 -5.90625 9.457031 -5.597656 8.6875 -5.390625 C 9.164062 -5.265625 9.535156 -5.054688 9.796875 -4.765625 C 10.066406 -4.472656 10.332031 -4.039062 10.59375 -3.46875 C 10.875 -2.863281 11.148438 -2.421875 11.421875 -2.140625 C 11.703125 -1.859375 12.023438 -1.71875 12.390625 -1.71875 C 12.710938 -1.71875 13.019531 -1.828125 13.3125 -2.046875 C 13.601562 -2.265625 13.972656 -2.632812 14.421875 -3.15625 C 14.535156 -3.300781 14.671875 -3.375 14.828125 -3.375 Z M 4.640625 -4.765625 C 4.296875 -4.765625 4.0625 -4.84375 3.9375 -5 C 3.8125 -5.164062 3.75 -5.347656 3.75 -5.546875 C 3.75 -5.785156 3.828125 -5.972656 3.984375 -6.109375 C 4.140625 -6.253906 4.316406 -6.328125 4.515625 -6.328125 L 4.890625 -6.328125 C 5.054688 -7.316406 5.207031 -8.171875 5.34375 -8.890625 C 5.476562 -9.535156 5.90625 -9.859375 6.625 -9.859375 C 7.195312 -9.859375 7.484375 -9.601562 7.484375 -9.09375 C 7.484375 -8.976562 7.476562 -8.894531 7.46875 -8.84375 L 7.015625 -6.328125 C 7.554688 -6.359375 8.050781 -6.488281 8.5 -6.71875 C 8.945312 -6.957031 9.300781 -7.28125 9.5625 -7.6875 C 9.832031 -8.101562 9.96875 -8.570312 9.96875 -9.09375 C 9.96875 -9.726562 9.75 -10.226562 9.3125 -10.59375 C 8.882812 -10.957031 8.253906 -11.140625 7.421875 -11.140625 C 6.429688 -11.140625 5.566406 -10.894531 4.828125 -10.40625 C 4.085938 -9.914062 3.507812 -9.1875 3.09375 -8.21875 C 2.6875 -7.257812 2.484375 -6.09375 2.484375 -4.71875 C 2.484375 -4.070312 2.546875 -3.515625 2.671875 -3.046875 C 2.804688 -2.585938 2.96875 -2.238281 3.15625 -2 C 3.34375 -1.769531 3.523438 -1.65625 3.703125 -1.65625 C 3.828125 -1.65625 3.929688 -1.722656 4.015625 -1.859375 C 4.109375 -1.992188 4.179688 -2.207031 4.234375 -2.5 Z M 4.640625 -4.765625 "/></g></g></g><g fill="#ffffff" fill-opacity="1"><g transform="translate(16.578919, 24.455731)"><g><path d="M 7.46875 -3.375 C 7.59375 -3.375 7.691406 -3.3125 7.765625 -3.1875 C 7.847656 -3.0625 7.890625 -2.894531 7.890625 -2.6875 C 7.890625 -2.28125 7.789062 -1.96875 7.59375 -1.75 C 7.226562 -1.300781 6.703125 -0.882812 6.015625 -0.5 C 5.335938 -0.113281 4.613281 0.078125 3.84375 0.078125 C 2.78125 0.078125 1.957031 -0.207031 1.375 -0.78125 C 0.789062 -1.351562 0.5 -2.140625 0.5 -3.140625 C 0.5 -3.835938 0.644531 -4.484375 0.9375 -5.078125 C 1.226562 -5.679688 1.632812 -6.160156 2.15625 -6.515625 C 2.675781 -6.867188 3.257812 -7.046875 3.90625 -7.046875 C 4.5 -7.046875 4.96875 -6.867188 5.3125 -6.515625 C 5.664062 -6.171875 5.84375 -5.703125 5.84375 -5.109375 C 5.84375 -4.410156 5.59375 -3.8125 5.09375 -3.3125 C 4.59375 -2.8125 3.75 -2.414062 2.5625 -2.125 C 2.820312 -1.664062 3.300781 -1.4375 4 -1.4375 C 4.457031 -1.4375 4.972656 -1.59375 5.546875 -1.90625 C 6.128906 -2.226562 6.632812 -2.644531 7.0625 -3.15625 C 7.175781 -3.300781 7.3125 -3.375 7.46875 -3.375 Z M 3.65625 -5.5625 C 3.28125 -5.5625 2.960938 -5.34375 2.703125 -4.90625 C 2.453125 -4.476562 2.328125 -3.957031 2.328125 -3.34375 L 2.328125 -3.3125 C 2.921875 -3.445312 3.390625 -3.65625 3.734375 -3.9375 C 4.078125 -4.21875 4.25 -4.546875 4.25 -4.921875 C 4.25 -5.117188 4.191406 -5.273438 4.078125 -5.390625 C 3.972656 -5.503906 3.832031 -5.5625 3.65625 -5.5625 Z M 3.65625 -5.5625 "/></g></g></g><g fill="#ffffff" fill-opacity="1"><g transform="translate(22.519432, 24.455731)"><g><path d="M 1.796875 0.078125 C 1.410156 0.078125 1.140625 -0.125 0.984375 -0.53125 C 0.828125 -0.9375 0.75 -1.582031 0.75 -2.46875 C 0.75 -3.769531 0.9375 -5.007812 1.3125 -6.1875 C 1.40625 -6.488281 1.550781 -6.707031 1.75 -6.84375 C 1.957031 -6.976562 2.25 -7.046875 2.625 -7.046875 C 2.832031 -7.046875 2.972656 -7.019531 3.046875 -6.96875 C 3.128906 -6.914062 3.171875 -6.816406 3.171875 -6.671875 C 3.171875 -6.515625 3.097656 -6.15625 2.953125 -5.59375 C 2.847656 -5.1875 2.765625 -4.832031 2.703125 -4.53125 C 2.640625 -4.226562 2.585938 -3.859375 2.546875 -3.421875 C 2.878906 -4.285156 3.253906 -4.988281 3.671875 -5.53125 C 4.085938 -6.070312 4.492188 -6.457031 4.890625 -6.6875 C 5.285156 -6.925781 5.648438 -7.046875 5.984375 -7.046875 C 6.640625 -7.046875 6.96875 -6.71875 6.96875 -6.0625 C 6.96875 -5.664062 6.859375 -4.953125 6.640625 -3.921875 C 6.441406 -3.046875 6.34375 -2.46875 6.34375 -2.1875 C 6.34375 -1.789062 6.488281 -1.59375 6.78125 -1.59375 C 6.988281 -1.59375 7.226562 -1.710938 7.5 -1.953125 C 7.78125 -2.203125 8.148438 -2.601562 8.609375 -3.15625 C 8.734375 -3.300781 8.867188 -3.375 9.015625 -3.375 C 9.148438 -3.375 9.253906 -3.3125 9.328125 -3.1875 C 9.398438 -3.0625 9.4375 -2.894531 9.4375 -2.6875 C 9.4375 -2.28125 9.34375 -1.96875 9.15625 -1.75 C 8.71875 -1.21875 8.25 -0.78125 7.75 -0.4375 C 7.257812 -0.09375 6.695312 0.078125 6.0625 0.078125 C 5.539062 0.078125 5.148438 -0.0664062 4.890625 -0.359375 C 4.628906 -0.660156 4.5 -1.09375 4.5 -1.65625 C 4.5 -1.9375 4.570312 -2.441406 4.71875 -3.171875 C 4.84375 -3.804688 4.90625 -4.242188 4.90625 -4.484375 C 4.90625 -4.648438 4.851562 -4.734375 4.75 -4.734375 C 4.613281 -4.734375 4.425781 -4.5625 4.1875 -4.21875 C 3.957031 -3.882812 3.71875 -3.441406 3.46875 -2.890625 C 3.21875 -2.335938 3.019531 -1.753906 2.875 -1.140625 C 2.757812 -0.660156 2.628906 -0.335938 2.484375 -0.171875 C 2.335938 -0.00390625 2.109375 0.078125 1.796875 0.078125 Z M 1.796875 0.078125 "/></g></g></g><g fill="#ffffff" fill-opacity="1"><g transform="translate(30.016875, 24.455731)"><g><path d="M 7.46875 -3.375 C 7.59375 -3.375 7.691406 -3.3125 7.765625 -3.1875 C 7.847656 -3.0625 7.890625 -2.894531 7.890625 -2.6875 C 7.890625 -2.28125 7.789062 -1.96875 7.59375 -1.75 C 7.164062 -1.21875 6.691406 -0.78125 6.171875 -0.4375 C 5.660156 -0.09375 5.070312 0.078125 4.40625 0.078125 C 2.351562 0.078125 1.328125 -1.367188 1.328125 -4.265625 C 1.328125 -4.703125 1.34375 -5.148438 1.375 -5.609375 L 0.78125 -5.609375 C 0.476562 -5.609375 0.273438 -5.660156 0.171875 -5.765625 C 0.0664062 -5.878906 0.015625 -6.054688 0.015625 -6.296875 C 0.015625 -6.859375 0.238281 -7.140625 0.6875 -7.140625 L 1.5625 -7.140625 C 1.726562 -8.253906 1.988281 -9.269531 2.34375 -10.1875 C 2.695312 -11.101562 3.117188 -11.832031 3.609375 -12.375 C 4.109375 -12.914062 4.648438 -13.1875 5.234375 -13.1875 C 5.648438 -13.1875 5.976562 -13 6.21875 -12.625 C 6.46875 -12.257812 6.59375 -11.789062 6.59375 -11.21875 C 6.59375 -9.664062 5.9375 -8.304688 4.625 -7.140625 L 6.3125 -7.140625 C 6.476562 -7.140625 6.59375 -7.101562 6.65625 -7.03125 C 6.726562 -6.96875 6.765625 -6.835938 6.765625 -6.640625 C 6.765625 -5.953125 6.195312 -5.609375 5.0625 -5.609375 L 3.21875 -5.609375 C 3.195312 -5.097656 3.1875 -4.703125 3.1875 -4.421875 C 3.1875 -3.378906 3.304688 -2.644531 3.546875 -2.21875 C 3.796875 -1.800781 4.191406 -1.59375 4.734375 -1.59375 C 5.160156 -1.59375 5.539062 -1.722656 5.875 -1.984375 C 6.207031 -2.242188 6.601562 -2.632812 7.0625 -3.15625 C 7.175781 -3.300781 7.3125 -3.375 7.46875 -3.375 Z M 4.8125 -11.734375 C 4.664062 -11.734375 4.5 -11.546875 4.3125 -11.171875 C 4.125 -10.796875 3.945312 -10.269531 3.78125 -9.59375 C 3.613281 -8.925781 3.476562 -8.1875 3.375 -7.375 C 3.96875 -7.882812 4.410156 -8.457031 4.703125 -9.09375 C 5.003906 -9.738281 5.15625 -10.320312 5.15625 -10.84375 C 5.15625 -11.4375 5.039062 -11.734375 4.8125 -11.734375 Z M 4.8125 -11.734375 "/></g></g></g><g fill="#ffffff" fill-opacity="1"><g transform="translate(35.957387, 24.455731)"><g><path d="M 11.40625 -2.75 C 11.5625 -2.8125 11.6875 -2.84375 11.78125 -2.84375 C 11.945312 -2.84375 12.066406 -2.78125 12.140625 -2.65625 C 12.222656 -2.539062 12.265625 -2.382812 12.265625 -2.1875 C 12.265625 -1.882812 12.191406 -1.628906 12.046875 -1.421875 C 11.898438 -1.210938 11.648438 -1.019531 11.296875 -0.84375 C 10.703125 -0.5625 9.929688 -0.335938 8.984375 -0.171875 C 8.035156 -0.00390625 7.101562 0.078125 6.1875 0.078125 C 4.925781 0.078125 3.863281 -0.0625 3 -0.34375 C 2.144531 -0.632812 1.507812 -1.03125 1.09375 -1.53125 C 0.675781 -2.039062 0.46875 -2.613281 0.46875 -3.25 C 0.46875 -4.113281 0.742188 -4.847656 1.296875 -5.453125 C 1.859375 -6.066406 2.6875 -6.507812 3.78125 -6.78125 C 3.1875 -6.957031 2.726562 -7.257812 2.40625 -7.6875 C 2.09375 -8.125 1.9375 -8.609375 1.9375 -9.140625 C 1.9375 -9.867188 2.164062 -10.507812 2.625 -11.0625 C 3.082031 -11.625 3.695312 -12.054688 4.46875 -12.359375 C 5.25 -12.660156 6.101562 -12.8125 7.03125 -12.8125 C 8.28125 -12.8125 9.210938 -12.539062 9.828125 -12 C 10.453125 -11.46875 10.765625 -10.769531 10.765625 -9.90625 C 10.765625 -9.3125 10.65625 -8.832031 10.4375 -8.46875 C 10.226562 -8.101562 9.921875 -7.921875 9.515625 -7.921875 C 9.234375 -7.921875 9.007812 -7.984375 8.84375 -8.109375 C 8.6875 -8.234375 8.609375 -8.421875 8.609375 -8.671875 C 8.609375 -8.835938 8.632812 -9.023438 8.6875 -9.234375 C 8.738281 -9.566406 8.765625 -9.789062 8.765625 -9.90625 C 8.765625 -10.269531 8.628906 -10.566406 8.359375 -10.796875 C 8.085938 -11.023438 7.632812 -11.140625 7 -11.140625 C 6.144531 -11.140625 5.457031 -10.957031 4.9375 -10.59375 C 4.425781 -10.226562 4.171875 -9.738281 4.171875 -9.125 C 4.171875 -8.65625 4.363281 -8.265625 4.75 -7.953125 C 5.132812 -7.648438 5.765625 -7.484375 6.640625 -7.453125 C 6.867188 -7.441406 7.023438 -7.390625 7.109375 -7.296875 C 7.203125 -7.203125 7.25 -7.050781 7.25 -6.84375 C 7.25 -6.175781 6.945312 -5.835938 6.34375 -5.828125 C 5.507812 -5.804688 4.816406 -5.691406 4.265625 -5.484375 C 3.710938 -5.273438 3.3125 -5.003906 3.0625 -4.671875 C 2.820312 -4.347656 2.703125 -4 2.703125 -3.625 C 2.703125 -3 2.992188 -2.523438 3.578125 -2.203125 C 4.160156 -1.890625 5.085938 -1.734375 6.359375 -1.734375 C 7.191406 -1.734375 8.070312 -1.832031 9 -2.03125 C 9.9375 -2.226562 10.738281 -2.46875 11.40625 -2.75 Z M 11.40625 -2.75 "/></g></g></g><g fill="#ffffff" fill-opacity="1"><g transform="translate(46.326834, 24.455731)"><g><path d="M 1.796875 0.078125 C 1.410156 0.078125 1.140625 -0.125 0.984375 -0.53125 C 0.828125 -0.9375 0.75 -1.582031 0.75 -2.46875 C 0.75 -3.769531 0.9375 -5.007812 1.3125 -6.1875 C 1.40625 -6.488281 1.550781 -6.707031 1.75 -6.84375 C 1.957031 -6.976562 2.25 -7.046875 2.625 -7.046875 C 2.832031 -7.046875 2.972656 -7.019531 3.046875 -6.96875 C 3.128906 -6.914062 3.171875 -6.816406 3.171875 -6.671875 C 3.171875 -6.515625 3.097656 -6.15625 2.953125 -5.59375 C 2.847656 -5.1875 2.765625 -4.832031 2.703125 -4.53125 C 2.640625 -4.226562 2.585938 -3.859375 2.546875 -3.421875 C 2.878906 -4.285156 3.253906 -4.988281 3.671875 -5.53125 C 4.085938 -6.070312 4.492188 -6.457031 4.890625 -6.6875 C 5.285156 -6.925781 5.648438 -7.046875 5.984375 -7.046875 C 6.640625 -7.046875 6.96875 -6.71875 6.96875 -6.0625 C 6.96875 -5.664062 6.859375 -4.953125 6.640625 -3.921875 C 6.441406 -3.046875 6.34375 -2.46875 6.34375 -2.1875 C 6.34375 -1.789062 6.488281 -1.59375 6.78125 -1.59375 C 6.988281 -1.59375 7.226562 -1.710938 7.5 -1.953125 C 7.78125 -2.203125 8.148438 -2.601562 8.609375 -3.15625 C 8.734375 -3.300781 8.867188 -3.375 9.015625 -3.375 C 9.148438 -3.375 9.253906 -3.3125 9.328125 -3.1875 C 9.398438 -3.0625 9.4375 -2.894531 9.4375 -2.6875 C 9.4375 -2.28125 9.34375 -1.96875 9.15625 -1.75 C 8.71875 -1.21875 8.25 -0.78125 7.75 -0.4375 C 7.257812 -0.09375 6.695312 0.078125 6.0625 0.078125 C 5.539062 0.078125 5.148438 -0.0664062 4.890625 -0.359375 C 4.628906 -0.660156 4.5 -1.09375 4.5 -1.65625 C 4.5 -1.9375 4.570312 -2.441406 4.71875 -3.171875 C 4.84375 -3.804688 4.90625 -4.242188 4.90625 -4.484375 C 4.90625 -4.648438 4.851562 -4.734375 4.75 -4.734375 C 4.613281 -4.734375 4.425781 -4.5625 4.1875 -4.21875 C 3.957031 -3.882812 3.71875 -3.441406 3.46875 -2.890625 C 3.21875 -2.335938 3.019531 -1.753906 2.875 -1.140625 C 2.757812 -0.660156 2.628906 -0.335938 2.484375 -0.171875 C 2.335938 -0.00390625 2.109375 0.078125 1.796875 0.078125 Z M 1.796875 0.078125 "/></g></g></g><g fill="#ffffff" fill-opacity="1"><g transform="translate(53.824277, 24.455731)"><g><path d="M 2.34375 -8.03125 C 1.914062 -8.03125 1.597656 -8.128906 1.390625 -8.328125 C 1.179688 -8.523438 1.078125 -8.800781 1.078125 -9.15625 C 1.078125 -9.507812 1.210938 -9.800781 1.484375 -10.03125 C 1.765625 -10.269531 2.109375 -10.390625 2.515625 -10.390625 C 2.890625 -10.390625 3.191406 -10.296875 3.421875 -10.109375 C 3.660156 -9.929688 3.78125 -9.679688 3.78125 -9.359375 C 3.78125 -8.953125 3.644531 -8.628906 3.375 -8.390625 C 3.113281 -8.148438 2.769531 -8.03125 2.34375 -8.03125 Z M 5.0625 -3.34375 C 5.195312 -3.34375 5.300781 -3.28125 5.375 -3.15625 C 5.445312 -3.03125 5.484375 -2.867188 5.484375 -2.671875 C 5.484375 -2.441406 5.445312 -2.257812 5.375 -2.125 C 5.300781 -2 5.191406 -1.882812 5.046875 -1.78125 C 4.335938 -1.320312 3.394531 -0.679688 2.21875 0.140625 C 1.820312 2.234375 1.3125 3.878906 0.6875 5.078125 C 0.0703125 6.273438 -0.71875 6.875 -1.6875 6.875 C -2.21875 6.875 -2.640625 6.710938 -2.953125 6.390625 C -3.273438 6.078125 -3.4375 5.664062 -3.4375 5.15625 C -3.4375 4.4375 -3.15625 3.671875 -2.59375 2.859375 C -2.039062 2.046875 -1 1.046875 0.53125 -0.140625 L 0.640625 -0.90625 C 0.773438 -1.875 0.882812 -2.828125 0.96875 -3.765625 C 1.03125 -4.304688 1.125 -5.113281 1.25 -6.1875 C 1.289062 -6.488281 1.398438 -6.707031 1.578125 -6.84375 C 1.765625 -6.976562 2.046875 -7.046875 2.421875 -7.046875 C 2.722656 -7.046875 2.921875 -7 3.015625 -6.90625 C 3.109375 -6.8125 3.15625 -6.6875 3.15625 -6.53125 C 3.15625 -6.0625 2.988281 -4.78125 2.65625 -2.6875 L 2.515625 -1.640625 C 3.316406 -2.242188 4.050781 -2.769531 4.71875 -3.21875 C 4.84375 -3.300781 4.957031 -3.34375 5.0625 -3.34375 Z M -1.53125 5.40625 C -1.269531 5.40625 -0.984375 5.109375 -0.671875 4.515625 C -0.359375 3.921875 -0.0625 2.960938 0.21875 1.640625 C -0.550781 2.296875 -1.101562 2.890625 -1.4375 3.421875 C -1.78125 3.953125 -1.953125 4.414062 -1.953125 4.8125 C -1.953125 5.207031 -1.8125 5.40625 -1.53125 5.40625 Z M -1.53125 5.40625 "/></g></g></g><g fill="#ffffff" fill-opacity="1"><g transform="translate(57.663692, 24.455731)"><g><path d="M 8.4375 -4.640625 C 8.5625 -4.640625 8.660156 -4.570312 8.734375 -4.4375 C 8.804688 -4.3125 8.84375 -4.144531 8.84375 -3.9375 C 8.84375 -3.457031 8.695312 -3.171875 8.40625 -3.078125 C 7.800781 -2.867188 7.132812 -2.75 6.40625 -2.71875 C 6.21875 -1.875 5.835938 -1.195312 5.265625 -0.6875 C 4.703125 -0.175781 4.066406 0.078125 3.359375 0.078125 C 2.753906 0.078125 2.234375 -0.0664062 1.796875 -0.359375 C 1.367188 -0.648438 1.046875 -1.035156 0.828125 -1.515625 C 0.609375 -2.003906 0.5 -2.53125 0.5 -3.09375 C 0.5 -3.863281 0.644531 -4.546875 0.9375 -5.140625 C 1.226562 -5.742188 1.628906 -6.210938 2.140625 -6.546875 C 2.660156 -6.890625 3.234375 -7.0625 3.859375 -7.0625 C 4.617188 -7.0625 5.234375 -6.796875 5.703125 -6.265625 C 6.171875 -5.734375 6.445312 -5.082031 6.53125 -4.3125 C 7 -4.332031 7.5625 -4.429688 8.21875 -4.609375 C 8.300781 -4.628906 8.375 -4.640625 8.4375 -4.640625 Z M 3.46875 -1.53125 C 3.789062 -1.53125 4.070312 -1.660156 4.3125 -1.921875 C 4.550781 -2.179688 4.710938 -2.554688 4.796875 -3.046875 C 4.484375 -3.265625 4.242188 -3.539062 4.078125 -3.875 C 3.910156 -4.21875 3.828125 -4.582031 3.828125 -4.96875 C 3.828125 -5.132812 3.84375 -5.296875 3.875 -5.453125 L 3.796875 -5.453125 C 3.390625 -5.453125 3.050781 -5.257812 2.78125 -4.875 C 2.519531 -4.488281 2.390625 -3.941406 2.390625 -3.234375 C 2.390625 -2.679688 2.492188 -2.257812 2.703125 -1.96875 C 2.921875 -1.675781 3.175781 -1.53125 3.46875 -1.53125 Z M 3.46875 -1.53125 "/></g></g></g><g fill="#ffffff" fill-opacity="1"><g transform="translate(64.480923, 24.455731)"><g><path d="M 8.46875 -3.34375 C 8.59375 -3.34375 8.691406 -3.28125 8.765625 -3.15625 C 8.847656 -3.03125 8.890625 -2.867188 8.890625 -2.671875 C 8.890625 -2.441406 8.851562 -2.257812 8.78125 -2.125 C 8.707031 -2 8.597656 -1.882812 8.453125 -1.78125 L 5.546875 0.171875 C 5.160156 2.253906 4.65625 3.890625 4.03125 5.078125 C 3.414062 6.273438 2.628906 6.875 1.671875 6.875 C 1.160156 6.875 0.742188 6.710938 0.421875 6.390625 C 0.0976562 6.078125 -0.0625 5.664062 -0.0625 5.15625 C -0.0625 4.675781 0.046875 4.191406 0.265625 3.703125 C 0.484375 3.210938 0.882812 2.644531 1.46875 2 C 2.0625 1.363281 2.894531 0.628906 3.96875 -0.203125 L 4.015625 -0.546875 C 4.085938 -0.921875 4.171875 -1.453125 4.265625 -2.140625 C 4.054688 -1.421875 3.769531 -0.867188 3.40625 -0.484375 C 3.050781 -0.109375 2.671875 0.078125 2.265625 0.078125 C 1.816406 0.078125 1.445312 -0.128906 1.15625 -0.546875 C 0.863281 -0.960938 0.71875 -1.484375 0.71875 -2.109375 C 0.71875 -2.867188 0.769531 -3.5625 0.875 -4.1875 C 0.976562 -4.820312 1.144531 -5.488281 1.375 -6.1875 C 1.476562 -6.488281 1.617188 -6.707031 1.796875 -6.84375 C 1.972656 -6.976562 2.257812 -7.046875 2.65625 -7.046875 C 2.875 -7.046875 3.023438 -7.007812 3.109375 -6.9375 C 3.203125 -6.863281 3.25 -6.757812 3.25 -6.625 C 3.25 -6.539062 3.191406 -6.265625 3.078125 -5.796875 C 2.984375 -5.429688 2.90625 -5.097656 2.84375 -4.796875 C 2.757812 -4.378906 2.6875 -3.976562 2.625 -3.59375 C 2.5625 -3.21875 2.53125 -2.910156 2.53125 -2.671875 C 2.53125 -2.285156 2.640625 -2.09375 2.859375 -2.09375 C 3.003906 -2.09375 3.191406 -2.242188 3.421875 -2.546875 C 3.648438 -2.847656 3.890625 -3.304688 4.140625 -3.921875 C 4.398438 -4.535156 4.648438 -5.289062 4.890625 -6.1875 C 4.972656 -6.488281 5.097656 -6.707031 5.265625 -6.84375 C 5.429688 -6.976562 5.679688 -7.046875 6.015625 -7.046875 C 6.242188 -7.046875 6.40625 -7.015625 6.5 -6.953125 C 6.59375 -6.890625 6.640625 -6.785156 6.640625 -6.640625 C 6.640625 -6.390625 6.503906 -5.523438 6.234375 -4.046875 L 5.84375 -1.609375 C 6.625 -2.203125 7.378906 -2.738281 8.109375 -3.21875 C 8.242188 -3.300781 8.363281 -3.34375 8.46875 -3.34375 Z M 1.84375 5.40625 C 2.09375 5.40625 2.375 5.113281 2.6875 4.53125 C 3 3.945312 3.3125 2.972656 3.625 1.609375 C 2.851562 2.265625 2.289062 2.863281 1.9375 3.40625 C 1.59375 3.945312 1.421875 4.414062 1.421875 4.8125 C 1.421875 4.988281 1.453125 5.128906 1.515625 5.234375 C 1.578125 5.347656 1.6875 5.40625 1.84375 5.40625 Z M 1.84375 5.40625 "/></g></g></g></svg>