<!-- Generated by IcoMoon.io -->
<svg version="1.1" xmlns="http://www.w3.org/2000/svg" width="768" height="768" viewBox="0 0 768 768">
<title></title>
<g id="icomoon-ignore">
</g>
<path fill="#3B82F6" d="M464.224 300.96l-80.224 46.4-222.752-128.864 80.352-45.92zM606.752 218.496l-78.592 45.472-222.208-128.16 61.888-35.36c3.584-2.048 7.424-3.36 11.36-3.968 6.976-1.088 14.24 0.096 20.928 3.968zM368.832 734.752c4.512 2.432 9.696 3.808 15.168 3.808 5.536 0 10.752-1.408 15.296-3.872 11.392-1.856 22.432-5.76 32.544-11.52l224.032-128.032c19.776-11.424 33.92-28.704 41.568-48.448 4.256-10.944 6.464-22.624 6.56-34.688v-256c0-15.296-3.616-29.792-10.048-42.688-0.704-2.272-1.664-4.48-2.912-6.624-1.472-2.528-3.2-4.768-5.184-6.72-0.992-1.376-2.048-2.752-3.104-4.064-7.36-9.152-16.384-16.896-26.592-22.88l-224.288-128.16c-19.52-11.264-41.6-14.88-62.528-11.648-11.616 1.824-22.88 5.728-33.184 11.616l-102.368 58.496c-6.72 1.312-12.992 4.8-17.696 10.112l-103.968 59.424c-12.256 7.072-22.368 16.416-30.112 27.2-1.92 1.92-3.648 4.16-5.088 6.624-1.248 2.176-2.24 4.416-2.944 6.72-1.28 2.56-2.432 5.216-3.456 7.872-4.224 10.976-6.432 22.656-6.528 34.496v256.224c0.032 22.72 7.936 43.616 21.248 60.096 7.36 9.152 16.384 16.896 26.592 22.88l224.288 128.16c10.368 5.984 21.44 9.824 32.704 11.584zM352 402.784v255.712l-207.84-118.752c-3.552-2.080-6.624-4.736-9.12-7.84-4.448-5.504-7.040-12.352-7.040-19.904v-238.784zM416 658.496v-255.712l224-129.568v238.784c-0.032 3.872-0.8 7.872-2.24 11.584-2.56 6.592-7.2 12.288-13.632 16z"></path>
</svg>
